<svg xmlns="http://www.w3.org/2000/svg" viewBox="0 0 400 400">
  <defs>
    <linearGradient id="bg2" x1="0%" y1="0%" x2="100%" y2="100%">
      <stop offset="0%" style="stop-color:#eff6ff"/>
      <stop offset="100%" style="stop-color:#dbeafe"/>
    </linearGradient>
  </defs>
  
  <!-- Background -->
  <rect width="400" height="400" fill="url(#bg2)" rx="20"/>
  
  <!-- Tube -->
  <path d="M120 200 Q120 180 140 180 L260 180 Q280 180 280 200 L280 220 Q280 240 260 240 L140 240 Q120 240 120 220 Z" fill="#e3f2fd" stroke="#2196f3" stroke-width="3"/>
  
  <!-- Blue nose piece -->
  <ellipse cx="100" cy="210" rx="30" ry="40" fill="#2196f3"/>
  <ellipse cx="100" cy="210" rx="15" ry="20" fill="#bbdefb"/>
  
  <!-- Red mouthpiece -->
  <rect x="280" y="195" width="60" height="30" rx="5" fill="#f44336"/>
  <ellipse cx="340" cy="210" rx="10" ry="15" fill="#ef5350"/>
  
  <!-- Filter indicator -->
  <rect x="180" y="190" width="40" height="40" rx="5" fill="#fff9c4" stroke="#fbc02d" stroke-width="2"/>
  <text x="200" y="215" font-family="Arial, sans-serif" font-size="10" fill="#f57f17" text-anchor="middle">FILTER</text>
  
  <!-- Brand text -->
  <text x="200" y="140" font-family="Arial, sans-serif" font-size="24" fill="#1565c0" text-anchor="middle" font-weight="bold">NoseFrida</text>
  <text x="200" y="165" font-family="Arial, sans-serif" font-size="14" fill="#1976d2" text-anchor="middle">The SnotSucker</text>
  
  <!-- Budget badge -->
  <rect x="280" y="60" width="80" height="40" rx="20" fill="#10b981"/>
  <text x="320" y="85" font-family="Arial, sans-serif" font-size="12" fill="white" text-anchor="middle" font-weight="bold">BUDGET</text>
  
  <!-- Features -->
  <text x="200" y="300" font-family="Arial, sans-serif" font-size="12" fill="#64748b" text-anchor="middle">✓ Doctor Invented</text>
  <text x="200" y="320" font-family="Arial, sans-serif" font-size="12" fill="#64748b" text-anchor="middle">✓ Hygiene Filters</text>
  <text x="200" y="340" font-family="Arial, sans-serif" font-size="12" fill="#64748b" text-anchor="middle">✓ Dishwasher Safe</text>
  
  <!-- Price -->
  <text x="200" y="380" font-family="Arial, sans-serif" font-size="20" fill="#059669" text-anchor="middle" font-weight="bold">~$15</text>
</svg>
